<svg xmlns="http://www.w3.org/2000/svg" viewBox="0 0 640 360" fill="none">
  <defs>
    <linearGradient id="sky" x1="0" x2="0" y1="0" y2="1">
      <stop offset="0%" stop-color="#c8e7ff"/>
      <stop offset="100%" stop-color="#f6fbff"/>
    </linearGradient>
    <linearGradient id="sun" x1="0" x2="1" y1="0" y2="1">
      <stop offset="0%" stop-color="#ffd166"/>
      <stop offset="100%" stop-color="#f9a826"/>
    </linearGradient>
    <linearGradient id="meadow" x1="0" x2="0" y1="0" y2="1">
      <stop offset="0%" stop-color="#d5f0d4"/>
      <stop offset="100%" stop-color="#9fd39f"/>
    </linearGradient>
  </defs>
  <rect width="640" height="360" fill="url(#sky)"/>
  <circle cx="520" cy="70" r="42" fill="url(#sun)" opacity="0.9"/>
  <path d="M0 240 C120 210 240 220 320 240 C400 260 520 250 640 220 L640 360 L0 360 Z" fill="url(#meadow)"/>
  <path d="M230 250 L330 110 L430 250 Z" fill="#f7f9fb" stroke="#0f172a" stroke-width="6" stroke-linejoin="round"/>
  <path d="M260 220 L330 135 L390 220" fill="#b8d4ff" stroke="#0f172a" stroke-width="6" stroke-linejoin="round"/>
  <path d="M180 260 C240 235 420 235 470 260" stroke="#0f172a" stroke-width="8" stroke-linecap="round" opacity="0.35"/>
  <path d="M260 260 C320 240 360 240 420 260" stroke="#0f172a" stroke-width="8" stroke-linecap="round" opacity="0.35"/>
  <circle cx="330" cy="140" r="9" fill="#0f172a"/>
  <path d="M305 180 C330 200 355 200 380 180" stroke="#0f172a" stroke-width="6" stroke-linecap="round" fill="none"/>
</svg>
