<svg xmlns="http://www.w3.org/2000/svg" viewBox="0 0 512 512" role="img" aria-labelledby="title desc">
  <title id="title">RCC</title>
  <desc id="desc">RCC marketplace logo with a blue container badge, terminal prompt, and repeat arrows.</desc>
  <defs>
    <linearGradient id="bg" x1="88" y1="36" x2="424" y2="476" gradientUnits="userSpaceOnUse">
      <stop offset="0" stop-color="#061a38"/>
      <stop offset="1" stop-color="#020a18"/>
    </linearGradient>
    <linearGradient id="stroke" x1="114" y1="72" x2="410" y2="440" gradientUnits="userSpaceOnUse">
      <stop offset="0" stop-color="#28c6ff"/>
      <stop offset="0.55" stop-color="#1677ff"/>
      <stop offset="1" stop-color="#0b4ec7"/>
    </linearGradient>
    <linearGradient id="accent" x1="172" y1="96" x2="342" y2="422" gradientUnits="userSpaceOnUse">
      <stop offset="0" stop-color="#37e7ff"/>
      <stop offset="1" stop-color="#1494ff"/>
    </linearGradient>
    <filter id="softShadow" x="-20%" y="-20%" width="140%" height="140%">
      <feDropShadow dx="0" dy="14" stdDeviation="18" flood-color="#000713" flood-opacity="0.55"/>
    </filter>
  </defs>

  <rect width="512" height="512" rx="64" fill="url(#bg)"/>
  <g filter="url(#softShadow)">
    <path d="M132 96h248c18 0 28 12 34 28l19 50 41 12c14 4 22 15 22 30v154c0 16-9 28-24 34l-80 31-10 45H130l-10-45-80-31c-15-6-24-18-24-34V216c0-15 8-26 22-30l41-12 19-50c6-16 16-28 34-28Z" fill="#06142e"/>
    <path d="M132 96h248c18 0 28 12 34 28l19 50 41 12c14 4 22 15 22 30v154c0 16-9 28-24 34l-80 31-10 45H130l-10-45-80-31c-15-6-24-18-24-34V216c0-15 8-26 22-30l41-12 19-50c6-16 16-28 34-28Z" fill="none" stroke="url(#stroke)" stroke-width="28" stroke-linejoin="round"/>
  </g>

  <g fill="url(#accent)">
    <path d="M151 122 210 162 151 202v-32l29-8-29-8z"/>
    <rect x="226" y="180" width="44" height="11" rx="5.5"/>
  </g>

  <text x="256" y="331" text-anchor="middle" font-family="Arial Black, Impact, system-ui, sans-serif" font-size="154" font-weight="900" letter-spacing="-4" fill="#fff">RCC</text>
  <text x="256" y="331" text-anchor="middle" font-family="Arial Black, Impact, system-ui, sans-serif" font-size="154" font-weight="900" letter-spacing="-4" fill="none" stroke="#e7f3ff" stroke-width="2">RCC</text>

  <g fill="none" stroke="url(#accent)" stroke-width="22" stroke-linecap="round" stroke-linejoin="round">
    <path d="M193 394a73 73 0 0 1 119-42"/>
    <path d="M312 352h-40l31 30z" fill="url(#accent)" stroke="none"/>
    <path d="M319 388a73 73 0 0 1-119 42"/>
    <path d="M200 430h40l-31-30z" fill="url(#accent)" stroke="none"/>
  </g>
</svg>
